<svg width="220" height="60" viewBox="0 0 220 60" fill="none" xmlns="http://www.w3.org/2000/svg">
<rect x="0.0866699" y="29.9963" width="18.2636" height="1.94928" rx="0.974641" transform="rotate(-45 0.0866699 29.9963)" fill="black"/>
<rect x="15.0879" y="14.9944" width="11.6509" height="1.94928" rx="0.974641" transform="rotate(-45 15.0879 14.9944)" fill="black"/>
<rect x="25.4138" y="4.66895" width="6.60284" height="1.94928" rx="0.974641" transform="rotate(-45 25.4138 4.66895)" fill="black"/>
<rect width="18.2636" height="1.94928" rx="0.974641" transform="matrix(-0.707107 0.707107 0.707107 0.707107 58.7083 28.6255)" fill="black"/>
<rect width="11.6509" height="1.94928" rx="0.974641" transform="matrix(-0.707107 0.707107 0.707107 0.707107 36.9495 50.3832)" fill="black"/>
<rect width="6.60284" height="1.94928" rx="0.974641" transform="matrix(-0.707107 0.707107 0.707107 0.707107 43.7058 43.6265)" fill="black"/>
<rect x="7.24365" y="37.1525" width="10.844" height="1.94928" rx="0.974641" transform="rotate(-45 7.24365 37.1525)" fill="black"/>
<rect x="16.4622" y="27.9327" width="17.5256" height="1.94928" rx="0.974641" transform="rotate(-45 16.4622 27.9327)" fill="#00A5CB"/>
<rect x="30.4072" y="13.9891" width="9.67301" height="1.94928" rx="0.974641" transform="rotate(-45 30.4072 13.9891)" fill="black"/>
<rect x="10.821" y="40.7314" width="7.4983" height="1.94928" rx="0.974641" transform="rotate(-45 10.821 40.7314)" fill="black"/>
<rect x="17.7227" y="33.8278" width="11.6411" height="1.94928" rx="0.974641" transform="rotate(-45 17.7227 33.8278)" fill="#00A5CB"/>
<rect x="27.9097" y="23.6418" width="18.2636" height="1.94928" rx="0.974641" transform="rotate(-45 27.9097 23.6418)" fill="black"/>
<rect width="7.4983" height="1.94928" rx="0.974641" transform="matrix(-0.707107 0.707107 0.707107 0.707107 47.9805 17.8831)" fill="black"/>
<rect width="11.6411" height="1.94928" rx="0.974641" transform="matrix(-0.707107 0.707107 0.707107 0.707107 41.0789 24.7864)" fill="#00A5CB"/>
<rect width="18.2636" height="1.94928" rx="0.974641" transform="matrix(-0.707107 0.707107 0.707107 0.707107 30.8921 34.9727)" fill="black"/>
<rect x="14.3989" y="44.3092" width="9.50572" height="1.94928" rx="0.974641" transform="rotate(-45 14.3989 44.3092)" fill="black"/>
<rect x="23.1528" y="35.5555" width="17.5059" height="1.94928" rx="0.974641" transform="rotate(-45 23.1528 35.5555)" fill="#00A5CB"/>
<rect x="37.6882" y="21.0204" width="9.49588" height="1.94928" rx="0.974641" transform="rotate(-45 37.6882 21.0204)" fill="black"/>
<rect width="9.50572" height="1.94928" rx="0.974641" transform="matrix(-0.707107 0.707107 0.707107 0.707107 51.5581 21.4617)" fill="black"/>
<rect width="17.5059" height="1.94928" rx="0.974641" transform="matrix(-0.707107 0.707107 0.707107 0.707107 42.8057 30.2153)" fill="#00A5CB"/>
<rect width="9.49588" height="1.94928" rx="0.974641" transform="matrix(-0.707107 0.707107 0.707107 0.707107 28.2703 44.7506)" fill="black"/>
<rect x="3.66431" y="33.5743" width="42.4215" height="1.94928" rx="0.974641" transform="rotate(-45 3.66431 33.5743)" fill="black"/>
<rect x="25.1333" y="55.0426" width="42.4215" height="1.94928" rx="0.974641" transform="rotate(-45 25.1333 55.0426)" fill="black"/>
<path d="M78.0823 22.5409L76.4512 23.8031C75.6356 22.6186 74.4512 22.0166 72.8977 22.0166C71.8492 22.0166 70.9171 22.3079 70.1404 22.871C69.3637 23.4341 68.9753 24.2691 68.9753 25.3371C68.9753 26.2303 69.3054 26.9682 69.9462 27.5119C70.587 28.0556 71.3831 28.4634 72.2958 28.7546C73.2084 29.0459 74.1405 29.3566 75.0531 29.6867C75.9852 30.0168 76.7619 30.5799 77.4221 31.3372C78.0629 32.0945 78.393 33.0848 78.393 34.2887C78.393 35.881 77.7716 37.1626 76.5289 38.1335C75.2861 39.1044 73.888 39.5898 72.3346 39.5898C69.8103 39.5898 67.8879 38.6772 66.5481 36.8713L68.2374 35.648C69.1113 37.1432 70.4899 37.8811 72.4123 37.8811C73.422 37.8811 74.3152 37.5704 75.1308 36.9684C75.9463 36.3665 76.3541 35.5509 76.3541 34.5218C76.3541 33.7062 76.1211 33.046 75.6551 32.5023C75.189 31.978 74.6065 31.5897 73.9075 31.3566C73.2084 31.1236 72.4511 30.8518 71.6356 30.5605C70.82 30.2692 70.0627 29.9586 69.3637 29.6479C68.6646 29.3372 68.1015 28.8323 67.6161 28.1139C67.1889 27.4536 66.9559 26.5798 66.9559 25.5313C66.9559 23.8613 67.5384 22.5603 68.7035 21.6671C69.8685 20.7545 71.2666 20.3079 72.8977 20.3079C75.0531 20.3079 76.7813 21.0457 78.0823 22.5409Z" fill="#00A5CB"/>
<path d="M96.8211 35.1431L98.3551 36.2305C97.7143 37.2209 96.7822 38.017 95.5783 38.6578C94.3744 39.2986 93.0346 39.6093 91.5588 39.6093C88.8015 39.6093 86.5296 38.6966 84.7043 36.8713C82.8791 35.0461 81.9858 32.7353 81.9858 29.9586C81.9858 27.1818 82.8985 24.8711 84.7043 23.0458C86.5102 21.2205 88.8015 20.3079 91.5588 20.3079C92.7627 20.3079 93.9472 20.5409 95.0735 21.0263C96.1997 21.5118 97.1512 22.2302 97.9085 23.2011L96.2774 24.4245C95.889 23.8031 95.2482 23.24 94.3356 22.7545C93.4229 22.2691 92.4909 22.0166 91.5588 22.0166C89.2675 22.0166 87.4423 22.7934 86.0636 24.3468C84.6849 25.9002 84.0053 27.7643 84.0053 29.9586C84.0053 32.1528 84.6849 34.0363 86.0636 35.5703C87.4423 37.1238 89.2675 37.9005 91.5588 37.9005C93.8696 37.9005 95.6172 36.9878 96.8211 35.1431Z" fill="#00A5CB"/>
<path d="M104.237 34.3275L102.217 39.1431H100.042L108.043 20.7738H109.868L117.829 39.1431H115.654L113.635 34.3081H104.237V34.3275ZM108.936 22.9486L104.936 32.5993H112.897L108.936 22.9486Z" fill="#00A5CB"/>
<path d="M123.228 20.7738V37.4344H131.791V39.1431H121.364V20.7738H123.228Z" fill="#00A5CB"/>
<path d="M137.248 30.4439V37.4149H147.073V39.1431H135.364V20.7738H146.763V22.4826H137.248V28.7351H146.141V30.4439H137.248Z" fill="#00A5CB"/>
<path d="M154.725 39.1431V24.3467H149.482V20.7738H164.007V24.3467H158.764V39.1431H154.725Z" fill="black"/>
<path d="M167.269 39.1431V20.7738H179.755V24.502H171.328V27.9196H179.289V31.6478H171.328V35.3761H180.221V39.1431H167.269Z" fill="black"/>
<path d="M199.617 23.0069L196.51 25.5507C195.656 24.541 194.51 24.0555 193.035 24.0555C191.501 24.0555 190.219 24.6186 189.229 25.7255C188.219 26.8323 187.734 28.2498 187.734 29.9586C187.734 31.6479 188.238 33.0654 189.229 34.1917C190.219 35.3179 191.462 35.881 192.918 35.881C194.569 35.881 195.831 35.2208 196.705 33.9004L200.083 36.4247C199.345 37.4733 198.375 38.2694 197.19 38.8131C196.006 39.3568 194.763 39.6093 193.442 39.6093C190.53 39.6093 188.161 38.7355 186.316 36.9684C184.471 35.2014 183.539 32.8712 183.539 29.9586C183.539 27.0459 184.471 24.7157 186.316 22.9487C188.122 21.1817 190.51 20.3079 193.404 20.3079C194.569 20.3079 195.695 20.5215 196.821 20.9487C197.967 21.3953 198.879 22.0749 199.617 23.0069Z" fill="black"/>
<path d="M203.289 39.1431V20.7738H207.347V27.6283H215.211V20.7738H219.25V39.1431H215.211V31.2012H207.347V39.1431H203.289Z" fill="black"/>
</svg>
