<svg viewBox="0 0 24 24" fill="none" xmlns="http://www.w3.org/2000/svg">
<g clip-path="url(#clip0_125_8343)">
<path d="M7.84256 10.8044C8.0016 10.8046 8.15426 10.7413 8.26673 10.6289C8.37919 10.5164 8.44245 10.3638 8.44223 10.2047C8.44223 9.87348 8.71088 9.60483 9.04212 9.60483C9.37337 9.60483 9.64201 9.87348 9.64201 10.2047C9.64201 10.536 9.91044 10.8044 10.2417 10.8044C10.5731 10.8044 10.8416 10.536 10.8416 10.2047C10.8416 9.21076 10.0359 8.40527 9.04212 8.40527C8.04839 8.40527 7.24268 9.21076 7.24268 10.2047C7.24268 10.3638 7.30572 10.5164 7.41818 10.6289C7.53087 10.7413 7.68331 10.8046 7.84256 10.8044Z" fill="currentColor"/>
<path d="M15.9716 14.7662C13.7315 15.886 10.3512 15.886 8.11069 14.7662C7.81437 14.6179 7.45413 14.738 7.30586 15.0344C7.15781 15.3307 7.27774 15.6911 7.57406 15.8392C8.97021 16.4977 10.4977 16.8294 12.041 16.8092C13.5844 16.8294 15.1121 16.4975 16.508 15.8392C16.8044 15.6911 16.9245 15.3307 16.7765 15.0344C16.6282 14.738 16.268 14.6179 15.9716 14.7662Z" fill="currentColor"/>
<path d="M22.2382 9.6046H21.6383V7.80515C21.6368 6.14958 20.2949 4.80768 18.6393 4.80614H16.8398V3.49587C17.666 3.20395 18.1617 2.35892 18.0135 1.49522C17.8652 0.6313 17.1164 0 16.24 0C15.3635 0 14.6147 0.6313 14.4664 1.49522C14.3182 2.35892 14.8139 3.20395 15.6401 3.49587V4.80614H8.44227V3.49587C9.26863 3.20395 9.76418 2.35892 9.61613 1.49522C9.46786 0.6313 8.71904 0 7.8426 0C6.96616 0 6.21712 0.6313 6.06907 1.49522C5.9208 2.35892 6.41635 3.20395 7.24271 3.49587V4.80614H5.44326C3.78769 4.8079 2.44602 6.14958 2.44426 7.80515V9.6046H1.84437C0.851071 9.60569 0.0460202 10.4107 0.0449219 11.404V13.8034C0.0460202 14.7967 0.851071 15.6017 1.84437 15.6028H2.44426V18.0019C2.44602 19.6577 3.78769 20.9994 5.44326 21.0012H8.44227V23.4003C8.44249 23.6184 8.56089 23.8192 8.75155 23.9248C8.94221 24.0305 9.17527 24.0243 9.36001 23.9088L14.0128 21.0012H18.6393C20.2949 20.9996 21.6368 19.6577 21.6383 18.0019V15.6028H22.2382C23.2315 15.6017 24.0365 14.7967 24.0376 13.8034V11.404C24.0365 10.4107 23.2315 9.60569 22.2382 9.6046ZM16.24 1.20725C16.5712 1.20725 16.8398 1.47567 16.8398 1.80692C16.8398 2.13838 16.5712 2.40681 16.24 2.40681C15.9087 2.40681 15.6401 2.13838 15.6401 1.80692C15.6407 1.47611 15.9089 1.20791 16.24 1.20725ZM7.8426 1.20725C8.17385 1.20725 8.44227 1.47567 8.44227 1.80692C8.44227 2.13838 8.17385 2.40681 7.8426 2.40681C7.51135 2.40681 7.24271 2.13838 7.24271 1.80692C7.24315 1.47589 7.51135 1.20769 7.8426 1.20725ZM1.84437 14.403C1.51334 14.4028 1.24492 14.1344 1.24448 13.8034V11.404C1.24492 11.073 1.51334 10.8046 1.84437 10.8042H2.44426V14.403H1.84437ZM20.4387 18.0019C20.4376 18.9955 19.6326 19.8005 18.6393 19.8014H13.8406C13.7284 19.8014 13.6183 19.833 13.5232 19.8928L9.64205 22.3178V20.4013C9.64205 20.2422 9.57901 20.0896 9.46632 19.9771C9.35386 19.8647 9.20119 19.8014 9.04216 19.8014H5.44326C4.44997 19.8005 3.64492 18.9955 3.64382 18.0019V7.80515C3.64492 6.81185 4.44997 6.0068 5.44326 6.0057H18.6393C19.6326 6.0068 20.4376 6.81185 20.4387 7.80515V18.0019ZM22.8379 13.8034C22.8374 14.1344 22.5692 14.4026 22.2382 14.403H21.6383V10.8042H22.2382C22.5692 10.8048 22.8374 11.073 22.8379 11.404V13.8034Z" fill="currentColor"/>
<path d="M15.0404 8.40527C14.0471 8.40637 13.2421 9.21142 13.241 10.2047C13.241 10.536 13.5094 10.8044 13.8406 10.8044C14.1721 10.8044 14.4405 10.536 14.4405 10.2047C14.4405 9.87348 14.7092 9.60483 15.0404 9.60483C15.3717 9.60483 15.6401 9.87348 15.6401 10.2047C15.6401 10.536 15.9087 10.8044 16.24 10.8044C16.5712 10.8044 16.8399 10.536 16.8399 10.2047C16.8388 9.21142 16.0337 8.40637 15.0404 8.40527Z" fill="currentColor"/>
</g>
<defs>
<clipPath id="clip0_125_8343">
<rect width="24" height="24" fill="white"/>
</clipPath>
</defs>
</svg>
