<svg viewBox="0 0 16 16" fill="none" xmlns="http://www.w3.org/2000/svg">
<path fill-rule="evenodd" clip-rule="evenodd" d="M10.656 4.06603C10.8785 4.39987 11.2532 4.60039 11.6544 4.60039H14C14.1945 4.60039 14.381 4.67765 14.5185 4.81518C14.6561 4.95271 14.7333 5.13923 14.7333 5.33372V12.6671C14.7333 12.8616 14.6561 13.0481 14.5185 13.1856C14.381 13.3231 14.1945 13.4004 14 13.4004H1.99998C1.80549 13.4004 1.61897 13.3231 1.48144 13.1856C1.34391 13.0481 1.26665 12.8615 1.26665 12.6671V5.33372C1.26665 5.13923 1.34391 4.95271 1.48144 4.81518C1.61897 4.67765 1.80549 4.60039 1.99998 4.60039H4.34554C4.74676 4.60039 5.12144 4.39987 5.344 4.06603L6.32109 2.60039H9.67887L10.656 4.06603ZM10.4992 1.66757L11.6544 3.40039H14C14.5127 3.40039 15.0045 3.60408 15.3671 3.96665C15.7296 4.32922 15.9333 4.82097 15.9333 5.33372V12.6671C15.9333 13.1798 15.7296 13.6716 15.3671 14.0341C15.0045 14.3967 14.5127 14.6004 14 14.6004H1.99998C1.48723 14.6004 0.995481 14.3967 0.632911 14.0341C0.27034 13.6716 0.0666504 13.1798 0.0666504 12.6671V5.33372C0.0666504 4.82097 0.27034 4.32922 0.632911 3.96665C0.995481 3.60408 1.48723 3.40039 1.99998 3.40039H4.34554L5.50075 1.66757C5.61203 1.50065 5.79937 1.40039 5.99998 1.40039H9.99998C10.2006 1.40039 10.3879 1.50065 10.4992 1.66757ZM8.00003 4.80029C5.86453 4.80029 4.13336 6.53146 4.13336 8.66696C4.13336 10.8025 5.86453 12.5336 8.00003 12.5336C10.1355 12.5336 11.8667 10.8025 11.8667 8.66696C11.8667 6.53146 10.1355 4.80029 8.00003 4.80029ZM5.33336 8.66696C5.33336 7.1942 6.52727 6.00029 8.00003 6.00029C9.47279 6.00029 10.6667 7.1942 10.6667 8.66696C10.6667 10.1397 9.47279 11.3336 8.00003 11.3336C6.52727 11.3336 5.33336 10.1397 5.33336 8.66696Z" fill="currentColor"/>
</svg>
