<svg viewBox="0 0 20 20" fill="none" xmlns="http://www.w3.org/2000/svg">
<rect width="20" height="20" rx="10" fill="currentColor"/>
<path d="M16.5306 7.03063L8.5306 15.0306C8.46092 15.1005 8.37813 15.156 8.28696 15.1939C8.1958 15.2317 8.09806 15.2512 7.99935 15.2512C7.90064 15.2512 7.8029 15.2317 7.71173 15.1939C7.62057 15.156 7.53778 15.1005 7.4681 15.0306L3.9681 11.5306C3.89833 11.4609 3.84299 11.378 3.80524 11.2869C3.76748 11.1957 3.74805 11.098 3.74805 10.9994C3.74805 10.9007 3.76748 10.803 3.80524 10.7119C3.84299 10.6207 3.89833 10.5379 3.9681 10.4681C4.03786 10.3984 4.12069 10.343 4.21184 10.3053C4.30299 10.2675 4.40069 10.2481 4.49935 10.2481C4.59801 10.2481 4.69571 10.2675 4.78686 10.3053C4.87801 10.343 4.96083 10.3984 5.0306 10.4681L7.99997 13.4375L15.4693 5.96938C15.6102 5.82848 15.8013 5.74933 16.0006 5.74933C16.1999 5.74933 16.391 5.82848 16.5318 5.96938C16.6727 6.11028 16.7519 6.30137 16.7519 6.50063C16.7519 6.69989 16.6727 6.89098 16.5318 7.03188L16.5306 7.03063Z" fill="white"/>
</svg>
