<svg viewBox="0 0 17 10" fill="none" xmlns="http://www.w3.org/2000/svg">
<path fill-rule="evenodd" clip-rule="evenodd" d="M11.7547 1.2221C12.0154 0.900227 11.9658 0.427948 11.6439 0.167231C11.3221 -0.093487 10.8498 -0.0439144 10.5891 0.277954L4.63145 7.63293L2.20045 5.21794C1.90659 4.92602 1.43172 4.92759 1.13979 5.22145C0.847871 5.51531 0.849441 5.99018 1.1433 6.2821L4.1632 9.2821C4.31368 9.43159 4.52041 9.51037 4.73221 9.49893C4.94401 9.4875 5.14106 9.38692 5.27457 9.2221L11.7547 1.2221ZM16.737 1.24314C17.0093 0.931031 16.9771 0.457254 16.665 0.184933C16.3528 -0.0873891 15.8791 -0.0551328 15.6067 0.256979L9.14925 7.65801L8.69696 7.21453C8.40119 6.92454 7.92634 6.92922 7.63635 7.22498C7.34635 7.52074 7.35103 7.9956 7.64679 8.28559L8.66669 9.28559C8.81412 9.43015 9.01463 9.50753 9.22095 9.49949C9.42727 9.49146 9.62115 9.39872 9.7569 9.24314L16.737 1.24314Z" fill="currentColor"/>
</svg>
