<svg viewBox="0 0 24 24" fill="none" xmlns="http://www.w3.org/2000/svg">
<path d="M2.25889 22.1561L3.65571 16.8396L3.66559 16.802L3.64677 16.768C2.76551 15.1753 2.30246 13.3682 2.30459 11.5291L2.30459 11.529C2.30693 5.74873 6.81843 1.05303 12.3539 1.05303C15.0408 1.05447 17.5631 2.14422 19.461 4.12416L19.531 4.05705L19.461 4.12416C21.3591 6.10425 22.404 8.73655 22.403 11.5374C22.4006 17.3172 17.8883 22.0138 12.3538 22.0138H12.3494C12.3494 22.0138 12.3494 22.0138 12.3494 22.0138C10.6683 22.0131 9.01638 21.5735 7.54889 20.7393L7.51405 20.7195L7.47539 20.7301L2.25889 22.1561Z" fill="currentColor" stroke="#E2E5E9" stroke-width="0.193951"/>
<path d="M12.3588 2.74417C7.70712 2.74417 3.92416 6.68627 3.92249 11.5317C3.92019 13.1863 4.36718 14.8077 5.21172 16.2087L5.41232 16.5411L4.56026 19.7839L7.75206 18.9115L8.06025 19.1018C9.35469 19.9026 10.8389 20.3261 12.3525 20.327H12.3557C17.0038 20.327 20.7867 16.3844 20.7886 11.5387C20.792 10.3838 20.5758 9.23954 20.1522 8.17234C19.7286 7.10513 19.1061 6.13607 18.3209 5.32133C17.5399 4.50214 16.6108 3.85255 15.5875 3.41018C14.5641 2.9678 13.4667 2.74143 12.3588 2.74417Z" fill="#F1F2F4"/>
<path fill-rule="evenodd" clip-rule="evenodd" d="M9.81459 7.10909C9.62457 6.66907 9.42462 6.66016 9.2441 6.65254L8.75818 6.64636C8.5891 6.64636 8.31441 6.71246 8.08218 6.97695C7.84996 7.2415 7.19479 7.88071 7.19479 9.18095C7.19479 10.4812 8.10328 11.7376 8.22989 11.9141C8.35645 12.0906 9.98367 14.8439 12.5606 15.9032C14.702 16.7835 15.1377 16.6084 15.6027 16.5645C16.0677 16.5205 17.1026 15.9252 17.3138 15.3081C17.5249 14.6909 17.525 14.1622 17.4617 14.0517C17.3984 13.9411 17.2294 13.8755 16.9757 13.7432C16.7219 13.611 15.4757 12.9717 15.2434 12.8834C15.011 12.7951 14.8421 12.7513 14.6729 13.0158C14.5037 13.2803 14.0184 13.8753 13.8705 14.0517C13.7225 14.2281 13.5748 14.2502 13.3211 14.1181C13.0673 13.986 12.251 13.7069 11.2824 12.8065C10.5288 12.106 10.0201 11.2409 9.87194 10.9766C9.72385 10.7122 9.85626 10.569 9.98341 10.4374C10.0971 10.3189 10.2368 10.1287 10.3638 9.97448C10.4909 9.82022 10.5326 9.70999 10.617 9.53388C10.7014 9.35776 10.6593 9.20312 10.5959 9.07099C10.5325 8.9389 10.0399 7.63174 9.81459 7.10909Z" fill="currentColor"/>
</svg>
